<svg width="40" height="40" viewBox="0 0 40 40" fill="none" xmlns="http://www.w3.org/2000/svg">
<path d="M40 19.98C40 8.95 31.04 0 20 0C8.96 0 0 8.95 0 19.98C0 26.055 2.76 31.53 7.08 35.205C7.12 35.245 7.16 35.245 7.16 35.285C7.52 35.565 7.88 35.845 8.28 36.125C8.48 36.245 8.64 36.4025 8.84 36.5625C12.1452 38.8034 16.0468 40.0009 20.04 40C24.0332 40.0009 27.9348 38.8034 31.24 36.5625C31.44 36.4425 31.6 36.285 31.8 36.1625C32.16 35.885 32.56 35.605 32.92 35.325C32.96 35.285 33 35.285 33 35.245C37.24 31.5275 40 26.055 40 19.98V19.98ZM20 37.4825C16.24 37.4825 12.8 36.2825 9.96 34.285C10 33.965 10.08 33.6475 10.16 33.3275C10.3983 32.4603 10.7479 31.6275 11.2 30.85C11.64 30.09 12.16 29.41 12.8 28.81C13.4 28.21 14.12 27.6525 14.84 27.2125C15.6 26.7725 16.4 26.4525 17.28 26.2125C18.1668 25.9735 19.0815 25.8532 20 25.855C22.7266 25.8357 25.3531 26.8816 27.32 28.77C28.24 29.69 28.96 30.77 29.48 32.0075C29.76 32.7275 29.96 33.4875 30.08 34.285C27.1279 36.3604 23.6086 37.4768 20 37.4825ZM13.88 18.9825C13.5276 18.1755 13.3503 17.303 13.36 16.4225C13.36 15.545 13.52 14.665 13.88 13.865C14.24 13.065 14.72 12.3475 15.32 11.7475C15.92 11.1475 16.64 10.67 17.44 10.31C18.24 9.95 19.12 9.79 20 9.79C20.92 9.79 21.76 9.95 22.56 10.31C23.36 10.67 24.08 11.15 24.68 11.7475C25.28 12.3475 25.76 13.0675 26.12 13.865C26.48 14.665 26.64 15.545 26.64 16.4225C26.64 17.3425 26.48 18.1825 26.12 18.98C25.7726 19.7682 25.2846 20.4865 24.68 21.1C24.0663 21.7037 23.348 22.1908 22.56 22.5375C20.9071 23.2168 19.0529 23.2168 17.4 22.5375C16.612 22.1908 15.8937 21.7037 15.28 21.1C14.6745 20.4955 14.1982 19.7742 13.88 18.98V18.9825ZM32.44 32.2475C32.44 32.1675 32.4 32.1275 32.4 32.0475C32.0066 30.796 31.4267 29.6111 30.68 28.5325C29.9326 27.446 29.014 26.4877 27.96 25.695C27.1551 25.0894 26.2826 24.5794 25.36 24.175C25.7797 23.8981 26.1686 23.5771 26.52 23.2175C27.1164 22.6288 27.6401 21.9707 28.08 21.2575C28.9659 19.802 29.4234 18.1262 29.4 16.4225C29.4124 15.1613 29.1674 13.9108 28.68 12.7475C28.1988 11.6266 27.5062 10.6089 26.64 9.75C25.7751 8.90008 24.7572 8.22148 23.64 7.75C22.4748 7.26348 21.2227 7.01936 19.96 7.0325C18.6972 7.02015 17.4451 7.26513 16.28 7.7525C15.1531 8.22297 14.1328 8.91596 13.28 9.79C12.4301 10.654 11.7515 11.671 11.28 12.7875C10.7926 13.9508 10.5476 15.2013 10.56 16.4625C10.56 17.3425 10.68 18.1825 10.92 18.98C11.16 19.82 11.48 20.58 11.92 21.2975C12.32 22.0175 12.88 22.6575 13.48 23.2575C13.84 23.6175 14.24 23.935 14.68 24.215C13.7546 24.6302 12.8818 25.1538 12.08 25.775C11.04 26.575 10.12 27.5325 9.36 28.5725C8.60565 29.6466 8.0252 30.8328 7.64 32.0875C7.6 32.1675 7.6 32.2475 7.6 32.2875C4.44 29.09 2.48 24.775 2.48 19.98C2.48 10.35 10.36 2.4775 20 2.4775C29.64 2.4775 37.52 10.35 37.52 19.98C37.5148 24.5799 35.6883 28.9906 32.44 32.2475V32.2475Z" fill="black"/>
</svg>
