<svg width="61" height="60" viewBox="0 0 61 60" fill="none" xmlns="http://www.w3.org/2000/svg">
<path d="M12.998 17.499H47.473C48.1716 17.499 48.8624 17.6455 49.5009 17.9288C50.1394 18.2121 50.7115 18.6261 51.1802 19.1441C51.6489 19.662 52.0039 20.2724 52.2223 20.936C52.4406 21.5995 52.5176 22.3014 52.448 22.9965L50.948 37.9965C50.8247 39.2303 50.2473 40.3742 49.328 41.2062C48.4086 42.0382 47.213 42.499 45.973 42.499H22.098C20.9417 42.4995 19.821 42.0992 18.9267 41.3662C18.0323 40.6332 17.4197 39.6129 17.193 38.479L12.998 17.499Z" stroke="black" stroke-width="3" stroke-linejoin="round"/>
<path d="M12.998 17.5L10.973 9.3925C10.8376 8.85188 10.5254 8.37202 10.0861 8.02914C9.6467 7.68626 9.10537 7.50001 8.54805 7.5H5.49805" stroke="black" stroke-width="3" stroke-linecap="round" stroke-linejoin="round"/>
<path d="M20.498 52.5H25.498" stroke="black" stroke-width="3" stroke-linecap="round" stroke-linejoin="round"/>
<path d="M40.4961 52.5H45.4961" stroke="black" stroke-width="3" stroke-linecap="round" stroke-linejoin="round"/>
</svg>
