<svg width="60" height="60" viewBox="0 0 60 60" fill="none" xmlns="http://www.w3.org/2000/svg">
<path d="M42.093 11.25C43.4581 11.2489 44.8097 11.5202 46.0686 12.0483C47.3275 12.5763 48.4684 13.3503 49.4242 14.325C51.3937 16.3245 52.4977 19.0184 52.4977 21.825C52.4977 24.6316 51.3937 27.3255 49.4242 29.325L29.9992 48.9938L10.5742 29.325C8.60468 27.3255 7.50069 24.6316 7.50069 21.825C7.50069 19.0184 8.60468 16.3245 10.5742 14.325C11.5306 13.351 12.6715 12.5774 13.9303 12.0493C15.189 11.5212 16.5404 11.2492 17.9055 11.2492C19.2705 11.2492 20.6219 11.5212 21.8806 12.0493C23.1394 12.5774 24.2803 13.351 25.2367 14.325L29.9992 19.2L34.743 14.3625C35.6959 13.3762 36.838 12.5922 38.1009 12.0575C39.3637 11.5227 40.7215 11.248 42.093 11.25ZM42.093 7.50001C40.2285 7.49842 38.3825 7.86911 36.6632 8.59032C34.9439 9.31153 33.3858 10.3688 32.0805 11.7L29.9992 13.8L27.918 11.7C26.611 10.3712 25.0526 9.31577 23.3336 8.59536C21.6145 7.87495 19.7693 7.50393 17.9055 7.50393C16.0416 7.50393 14.1964 7.87495 12.4774 8.59536C10.7583 9.31577 9.19993 10.3712 7.89296 11.7C5.23398 14.4068 3.74414 18.0494 3.74414 21.8438C3.74414 25.6381 5.23398 29.2807 7.89296 31.9875L29.9992 54.375L52.1055 31.9875C54.7644 29.2807 56.2543 25.6381 56.2543 21.8438C56.2543 18.0494 54.7644 14.4068 52.1055 11.7C50.7988 10.3705 49.2405 9.31434 47.5215 8.59325C45.8025 7.87215 43.9571 7.50052 42.093 7.50001Z" fill="black"/>
</svg>
