<svg width="100" height="100" viewBox="0 0 100 100" fill="none" xmlns="http://www.w3.org/2000/svg">
<path d="M17.8889 49V80.1111C17.8889 82.4686 18.8254 84.7295 20.4924 86.3965C22.1594 88.0635 24.4203 89 26.7778 89H71.2222C73.5797 89 75.8406 88.0635 77.5076 86.3965C79.1746 84.7295 80.1111 82.4686 80.1111 80.1111V49M49 31.2222V89V31.2222ZM49 31.2222V22.3333C49 20.5753 49.5213 18.8567 50.4981 17.3949C51.4748 15.9332 52.863 14.7939 54.4873 14.1211C56.1115 13.4483 57.8988 13.2723 59.623 13.6152C61.3473 13.9582 62.9311 14.8048 64.1743 16.0479C65.4174 17.2911 66.264 18.8749 66.607 20.5992C66.95 22.3235 66.7739 24.1107 66.1012 25.735C65.4284 27.3592 64.2891 28.7475 62.8273 29.7242C61.3655 30.7009 59.6469 31.2222 57.8889 31.2222H49ZM49 31.2222V20.1111C49 17.9135 48.3483 15.7653 47.1274 13.9381C45.9065 12.1109 44.1712 10.6868 42.1409 9.84579C40.1106 9.00481 37.8766 8.78478 35.7212 9.2135C33.5659 9.64223 31.5861 10.7005 30.0321 12.2544C28.4782 13.8083 27.42 15.7881 26.9913 17.9434C26.5625 20.0988 26.7826 22.3329 27.6236 24.3632C28.4645 26.3934 29.8887 28.1288 31.7159 29.3497C33.5431 30.5706 35.6913 31.2222 37.8889 31.2222H49ZM17.8889 49H80.1111H17.8889ZM17.8889 49C15.5314 49 13.2705 48.0635 11.6035 46.3965C9.9365 44.7295 9 42.4686 9 40.1111C9 37.7536 9.9365 35.4927 11.6035 33.8257C13.2705 32.1587 15.5314 31.2222 17.8889 31.2222H80.1111C82.4686 31.2222 84.7295 32.1587 86.3965 33.8257C88.0635 35.4927 89 37.7536 89 40.1111C89 42.4686 88.0635 44.7295 86.3965 46.3965C84.7295 48.0635 82.4686 49 80.1111 49H17.8889Z" stroke="#FF8585" stroke-width="5" stroke-linecap="round" stroke-linejoin="round"/>
</svg>
