<svg width="100" height="100" viewBox="0 0 100 100" fill="none" xmlns="http://www.w3.org/2000/svg">
<path d="M70 65H62.5C61.8229 65 61.237 64.7526 60.7422 64.2578C60.2474 63.763 60 63.1771 60 62.5V37.5C60 36.8229 60.2474 36.237 60.7422 35.7422C61.237 35.2474 61.8229 35 62.5 35H65C65 27.2917 62.8516 21.1979 58.5547 16.7188C54.2578 12.2396 48.0729 10 40 10C31.9271 10 25.7422 12.2396 21.4453 16.7188C17.1484 21.1979 15 27.2917 15 35H17.5C18.1771 35 18.763 35.2474 19.2578 35.7422C19.7526 36.237 20 36.8229 20 37.5V62.5C20 63.1771 19.7526 63.763 19.2578 64.2578C18.763 64.7526 18.1771 65 17.5 65H15C15 67.7604 15.9766 70.1172 17.9297 72.0703C19.8828 74.0234 22.2396 75 25 75H30C30 73.5938 30.4818 72.4089 31.4453 71.4453C32.4089 70.4818 33.5938 70 35 70H40C41.4062 70 42.5911 70.4818 43.5547 71.4453C44.5182 72.4089 45 73.5807 45 74.9609C45 76.3411 44.5182 77.526 43.5547 78.5156C42.5911 79.5052 41.4062 80 40 80H25C20.8333 80 17.2917 78.5417 14.375 75.625C11.4583 72.7083 10 69.1667 10 65C7.23958 65 4.88281 63.5417 2.92969 60.625C0.976562 57.7083 0 54.1667 0 50C0 47.2917 0.455729 44.7917 1.36719 42.5C2.27865 40.2083 3.48958 38.4115 5 37.1094V35C5 30.2604 5.92448 25.7292 7.77344 21.4062C9.6224 17.0833 12.1094 13.3594 15.2344 10.2344C18.3594 7.10938 22.0833 4.6224 26.4062 2.77344C30.7292 0.924479 35.2604 0 40 0C44.7396 0 49.2708 0.924479 53.5938 2.77344C57.9167 4.6224 61.6406 7.10938 64.7656 10.2344C67.8906 13.3594 70.3776 17.0833 72.2266 21.4062C74.0755 25.7292 75 30.2604 75 35V37.1094C76.5104 38.4115 77.7214 40.2083 78.6328 42.5C79.5443 44.7917 80 47.2917 80 50C80 54.1667 79.0234 57.7083 77.0703 60.625C75.1172 63.5417 72.7604 65 70 65Z" fill="#FF8585"/>
</svg>
