<svg width="60" height="60" viewBox="0 0 60 60" fill="none" xmlns="http://www.w3.org/2000/svg">
<path d="M7.5 24.999V47.499C7.5 48.8251 8.02678 50.0969 8.96447 51.0346C9.90215 51.9722 11.1739 52.499 12.5 52.499H47.5C48.8261 52.499 50.0979 51.9722 51.0355 51.0346C51.9732 50.0969 52.5 48.8251 52.5 47.499V24.999" stroke="#FF8585" stroke-width="1.5"/>
<path d="M37.084 52.499V37.499C37.084 36.1729 36.5572 34.9012 35.6195 33.9635C34.6818 33.0258 33.4101 32.499 32.084 32.499H27.084C25.7579 32.499 24.4861 33.0258 23.5484 33.9635C22.6108 34.9012 22.084 36.1729 22.084 37.499V52.499" stroke="#FF8585" stroke-width="1.5" stroke-miterlimit="16"/>
<path d="M54.5431 23.41L50.3081 8.5875C50.2185 8.27412 50.0292 7.99846 49.7689 7.80225C49.5086 7.60603 49.1915 7.49993 48.8656 7.5H38.748L39.9356 21.76C39.9535 21.9893 40.0259 22.211 40.1468 22.4067C40.2677 22.6023 40.4335 22.7663 40.6306 22.885C41.6056 23.4675 43.5106 24.5425 44.9981 25C47.5381 25.7825 51.2481 25.5 53.3631 25.24C53.5687 25.2134 53.7661 25.1423 53.9413 25.0316C54.1166 24.9209 54.2657 24.7732 54.378 24.599C54.4904 24.4247 54.5634 24.2281 54.5919 24.0227C54.6204 23.8174 54.6037 23.6083 54.5431 23.41Z" stroke="#FF8585" stroke-width="1.5"/>
<path d="M34.9995 25C36.4195 24.5625 38.2195 23.565 39.2245 22.97C39.4588 22.8306 39.6488 22.6277 39.7727 22.3848C39.8966 22.142 39.9492 21.869 39.9245 21.5975L38.7495 7.5H21.2495L20.0745 21.5975C20.0493 21.8694 20.1017 22.1429 20.2256 22.3862C20.3495 22.6296 20.5398 22.8329 20.7745 22.9725C21.7795 23.565 23.5795 24.5625 24.9995 25C28.732 26.15 31.267 26.15 34.9995 25V25Z" stroke="#FF8585" stroke-width="1.5"/>
<path d="M9.69233 8.5875L5.45733 23.4125C5.39755 23.6104 5.38157 23.819 5.4105 24.0238C5.43942 24.2285 5.51256 24.4245 5.62483 24.5982C5.73711 24.7718 5.88583 24.9189 6.06067 25.0293C6.23551 25.1397 6.43228 25.2108 6.63733 25.2375C8.74983 25.5 12.4623 25.78 15.0023 25C16.4898 24.5425 18.3973 23.4675 19.3698 22.8875C19.5672 22.7686 19.7332 22.6042 19.8541 22.4081C19.975 22.2119 20.0473 21.9897 20.0648 21.76L21.2523 7.5H11.1348C10.8089 7.49993 10.4918 7.60603 10.2315 7.80225C9.97124 7.99846 9.78196 8.27412 9.69233 8.5875V8.5875Z" stroke="#FF8585" stroke-width="1.5"/>
</svg>
