<svg width="60" height="61" viewBox="0 0 60 61" fill="none" xmlns="http://www.w3.org/2000/svg">
<path d="M20.961 6.69815L18.813 7.34615C16.8972 7.92326 15.1861 9.03574 13.8813 10.5526C12.5765 12.0695 11.7323 13.9276 11.448 15.9082C10.557 22.1122 12.549 29.3662 17.352 37.6852C22.143 45.9832 27.417 51.3292 33.222 53.6692C35.0872 54.4209 37.129 54.6212 39.1047 54.2462C41.0804 53.8713 42.9069 52.9369 44.367 51.5542L45.996 50.0122C47.0514 49.0125 47.708 47.6637 47.8437 46.2163C47.9794 44.769 47.5851 43.3216 46.734 42.1432L42.666 36.5032C42.116 35.7417 41.3416 35.1715 40.4512 34.8724C39.5608 34.5732 38.5992 34.5602 37.701 34.8352L31.548 36.7162L31.389 36.7462C30.711 36.8452 29.148 35.3782 27.198 32.0002C25.158 28.4662 24.732 26.3992 25.296 25.8652L28.428 22.9462C29.5717 21.8792 30.3528 20.481 30.6616 18.9476C30.9704 17.4142 30.7915 15.8227 30.15 14.3962L28.17 9.98315C27.5727 8.65387 26.512 7.58741 25.186 6.98291C23.8599 6.37842 22.3592 6.2772 20.964 6.69815H20.961ZM25.431 11.2132L27.414 15.6262C27.7996 16.4818 27.9074 17.4369 27.7223 18.357C27.5372 19.2771 27.0685 20.1161 26.382 20.7562L23.244 23.6782C21.234 25.5772 21.9 28.8262 24.597 33.5002C27.138 37.8982 29.454 40.0702 31.941 39.6922L32.313 39.6142L38.577 37.7032C38.8764 37.6112 39.1971 37.6152 39.4941 37.7148C39.7911 37.8143 40.0495 38.0043 40.233 38.2582L44.301 43.8982C44.727 44.4875 44.9244 45.2115 44.8565 45.9355C44.7886 46.6595 44.4601 47.3342 43.932 47.8342L42.303 49.3762C41.26 50.3632 39.9556 51.0301 38.5448 51.2976C37.1339 51.5651 35.6759 51.422 34.344 50.8852C29.25 48.8332 24.435 43.9522 19.95 36.1852C15.456 28.4002 13.638 21.7792 14.418 16.3342C14.6209 14.9191 15.224 13.5915 16.1563 12.5077C17.0886 11.424 18.3111 10.6293 19.68 10.2172L21.831 9.56915C22.5284 9.3596 23.2782 9.41084 23.9405 9.71333C24.6029 10.0158 25.1327 10.5489 25.431 11.2132Z" fill="#5AE781"/>
</svg>
