<svg width="100" height="100" viewBox="0 0 100 100" fill="none" xmlns="http://www.w3.org/2000/svg">
<path d="M92.7557 25.4316L52.8081 14.0652C52.4975 13.9771 52.1685 13.9783 51.8586 14.0686L13.1331 25.4781C13.0516 25.5129 12.973 25.5544 12.8983 25.6021C11.2119 26.0439 9.68464 26.9565 8.4932 28.2342C7.30175 29.5119 6.49487 31.1025 6.16597 32.8218C5.83707 34.5412 5.9996 36.3189 6.63473 37.9493C7.26987 39.5797 8.35165 40.996 9.75483 42.0343C8.58147 42.8993 7.62927 44.0318 6.97655 45.3385C6.32382 46.6453 5.98922 48.0891 6.00026 49.5512C6.01131 51.0132 6.36768 52.4518 7.04007 53.7484C7.71246 55.0451 8.68166 56.1629 9.86795 57.0099C8.4749 58.0077 7.38577 59.3754 6.72246 60.9598C6.05915 62.5442 5.84784 64.2827 6.11219 65.9809C6.37654 67.6791 7.10611 69.2698 8.21924 70.5751C9.33237 71.8804 10.7851 72.8487 12.4149 73.3716L51.8603 84.9308C52.1707 85.0219 52.5004 85.023 52.8115 84.9343L92.7574 73.4801C93.1153 73.3772 93.4301 73.1601 93.6543 72.8616C93.8785 72.563 93.9998 72.1993 94 71.8253V27.0898C94 26.7151 93.8783 26.3506 93.6534 26.0516C93.4286 25.7527 93.1128 25.5356 92.7539 25.4333L92.7557 25.4316Z" fill="#FFEEEE"/>
<path d="M52.8873 16L93 27.4575L52.8873 39L14 27.4991L52.8873 16Z" fill="#FF8585"/>
<path d="M13.9471 30.6544L51.5196 41.6431C52.1383 41.8238 52.7957 41.8262 53.4158 41.6499L93.2125 30.1192C93.4278 30.0568 93.6174 29.9271 93.7534 29.7491C93.8893 29.5711 93.9644 29.3543 93.9675 29.1306L94 27L52.4796 38.3722L13.9437 27.1006C12.329 27.4453 10.8729 28.311 9.80059 29.564C8.72824 30.8169 8.09925 32.3872 8.0108 34.0325C7.92234 35.6777 8.37935 37.3062 9.31121 38.6664C10.2431 40.0266 11.5979 41.0427 13.1664 41.5579L52.4814 53L93.8411 41.2221L93.9095 39.1034C93.9149 38.9356 93.8805 38.7689 93.8091 38.6169C93.7377 38.4649 93.6313 38.3318 93.4986 38.2286C93.3658 38.1255 93.2105 38.055 93.0453 38.0231C92.8801 37.9912 92.7097 37.9987 92.5479 38.045L52.4899 49.4513L14.1863 38.3041C13.3989 38.0344 12.7125 37.532 12.2182 36.8636C11.724 36.1953 11.4454 35.3927 11.4194 34.5625C11.3935 33.7323 11.6214 32.9139 12.0729 32.2161C12.5244 31.5183 13.1781 30.9742 13.9471 30.6561" fill="#FF8585"/>
<path d="M13.9471 45.6561L51.5196 56.6431C52.1383 56.8239 52.7958 56.8263 53.4158 56.6499L93.2125 45.1175C93.4276 45.0552 93.617 44.9257 93.7529 44.7481C93.8888 44.5704 93.964 44.354 93.9675 44.1306L94 42L52.4796 53.3722L13.9437 42.1006C12.329 42.4453 10.8729 43.311 9.80059 44.564C8.72824 45.8169 8.09925 47.3873 8.0108 49.0325C7.92234 50.6777 8.37935 52.3062 9.31121 53.6664C10.2431 55.0266 11.5979 56.0427 13.1664 56.5579L52.4814 68L93.8411 56.2221L93.9095 54.1034C93.9149 53.9356 93.8805 53.7689 93.8091 53.6169C93.7377 53.4649 93.6313 53.3318 93.4986 53.2286C93.3658 53.1255 93.2105 53.055 93.0453 53.0231C92.8801 52.9912 92.7097 52.9987 92.5479 53.045L52.4899 64.4513L14.1863 53.3041C13.3989 53.0344 12.7125 52.532 12.2182 51.8636C11.724 51.1953 11.4454 50.3927 11.4194 49.5625C11.3935 48.7323 11.6214 47.9139 12.0729 47.2161C12.5244 46.5183 13.1781 45.9742 13.9471 45.6561Z" fill="#FF8585"/>
<path d="M13.9442 60.6576L51.518 71.6421C52.1368 71.8229 52.7942 71.8252 53.4143 71.649L93.2124 60.119C93.4278 60.0566 93.6174 59.9269 93.7533 59.7489C93.8893 59.571 93.9644 59.3542 93.9675 59.1304L94 57L52.4781 68.3715L13.9408 57.104C12.3267 57.4493 10.8714 58.3151 9.79963 59.5677C8.72787 60.8204 8.09924 62.3901 8.0108 64.0347C7.92236 65.6793 8.37903 67.3072 9.31031 68.667C10.2416 70.0268 11.5957 71.043 13.1635 71.5586L52.4798 83L93.8411 71.2229L93.9095 69.1061C93.9152 68.9381 93.881 68.7712 93.8097 68.619C93.7384 68.4667 93.632 68.3335 93.4993 68.2301C93.3665 68.1267 93.2111 68.0562 93.0457 68.0241C92.8804 67.9921 92.7098 67.9996 92.5479 68.046L52.4884 79.4532L14.1834 68.3067C13.3954 68.0374 12.7084 67.5351 12.2137 66.8666C11.719 66.1981 11.4401 65.3951 11.4141 64.5646C11.3882 63.7341 11.6164 62.9153 12.0683 62.2174C12.5203 61.5194 13.1746 60.9753 13.9442 60.6576Z" fill="#FF8585"/>
<path d="M64 18.9201L54.0927 16L15 27.9305L25.0526 31L64 18.9201Z" fill="#FF8585"/>
<path d="M52.6162 15.9497L92.6136 27.2817L52.6162 38.6977L13.8408 27.3228L52.6162 15.9497Z" stroke="#FF8585" stroke-width="2" stroke-linecap="round" stroke-linejoin="round"/>
<path d="M13.9028 27.3486C12.2806 27.6958 10.8178 28.5674 9.74053 29.8289C8.66324 31.0905 8.03135 32.6716 7.94249 34.3282C7.85362 35.9847 8.31274 37.6244 9.24889 38.9939C10.185 40.3635 11.5461 41.3866 13.1219 41.9053L52.6181 53.426L92.6137 42.01" stroke="#FF8585" stroke-width="2" stroke-linecap="round" stroke-linejoin="round"/>
<path d="M13.9025 42.1968C12.281 42.5445 10.8191 43.4163 9.74243 44.6776C8.66576 45.9389 8.03426 47.5196 7.94542 49.1756C7.85658 50.8316 8.31534 52.4707 9.25087 53.84C10.1864 55.2093 11.5467 56.2325 13.1217 56.7517L52.6179 68.2742L92.6135 56.8581" stroke="#FF8585" stroke-width="2" stroke-linecap="round" stroke-linejoin="round"/>
<path d="M13.9025 57.207C12.281 57.5547 10.8191 58.4266 9.74243 59.6879C8.66576 60.9492 8.03426 62.5299 7.94542 64.1858C7.85658 65.8418 8.31534 67.481 9.25087 68.8503C10.1864 70.2195 11.5467 71.2428 13.1217 71.762L52.6179 83.2827L92.6135 71.8684" stroke="#FF8585" stroke-width="2" stroke-linecap="round" stroke-linejoin="round"/>
</svg>
