<svg width="100" height="100" viewBox="0 0 100 100" fill="none" xmlns="http://www.w3.org/2000/svg">
<path d="M60 85H40V65H60V85ZM45 80H55V70H45V80Z" fill="#FF8585"/>
<path d="M90 37.5H65V42.5H75V50H25V42.5H35V37.5H10V42.5H20V55H32.83L25 66.7425V77.5H30V68.2575L38.8375 55H61.1625L70 68.2575V77.5H75V66.7425L67.17 55H80V42.5H90V37.5Z" fill="#FF8585"/>
<path d="M49.9994 25C48.0299 24.9993 46.0796 25.3876 44.2605 26.1427C42.4415 26.8978 40.7895 28.0047 39.3994 29.4L42.9319 32.9325C43.8594 32.0032 44.961 31.2659 46.1737 30.7629C47.3865 30.2599 48.6865 30.0009 49.9994 30.0009C51.3123 30.0009 52.6124 30.2599 53.8251 30.7629C55.0378 31.2659 56.1395 32.0032 57.0669 32.9325L60.6019 29.3975C59.2114 28.0023 57.559 26.8955 55.7394 26.1409C53.9199 25.3862 51.9692 24.9985 49.9994 25Z" fill="#FF8585"/>
<path d="M32.3291 22.3298L35.8641 25.8648C37.719 24.0062 39.9222 22.5316 42.3477 21.5256C44.7732 20.5195 47.3733 20.0016 49.9991 20.0016C52.625 20.0016 55.225 20.5195 57.6505 21.5256C60.076 22.5316 62.2792 24.0062 64.1341 25.8648L67.6691 22.3298C65.3506 20.0059 62.5964 18.1621 59.5644 16.9041C56.5323 15.6461 53.2818 14.9985 49.9991 14.9985C46.7164 14.9985 43.4659 15.6461 40.4339 16.9041C37.4018 18.1621 34.6476 20.0059 32.3291 22.3298Z" fill="#FF8585"/>
</svg>
