<svg width="41" height="40" viewBox="0 0 41 40" fill="none" xmlns="http://www.w3.org/2000/svg">
<path d="M5.5 16.666V31.666C5.5 32.5501 5.85119 33.3979 6.47631 34.023C7.10143 34.6482 7.94928 34.9994 8.83333 34.9994H32.1667C33.0507 34.9994 33.8986 34.6482 34.5237 34.023C35.1488 33.3979 35.5 32.5501 35.5 31.666V16.666" stroke="black" stroke-width="3"/>
<path d="M25.2227 34.9993V24.9993C25.2227 24.1153 24.8715 23.2674 24.2463 22.6423C23.6212 22.0172 22.7734 21.666 21.8893 21.666H18.556C17.6719 21.666 16.8241 22.0172 16.199 22.6423C15.5738 23.2674 15.2227 24.1153 15.2227 24.9993V34.9993" stroke="black" stroke-width="3" stroke-miterlimit="16"/>
<path d="M36.8621 15.6067L34.0387 5.725C33.979 5.51608 33.8528 5.33231 33.6793 5.2015C33.5058 5.07069 33.2944 4.99995 33.0771 5H26.332L27.1237 14.5067C27.1357 14.6595 27.184 14.8073 27.2645 14.9378C27.3451 15.0682 27.4557 15.1775 27.587 15.2567C28.237 15.645 29.507 16.3617 30.4987 16.6667C32.1921 17.1883 34.6654 17 36.0754 16.8267C36.2125 16.8089 36.344 16.7615 36.4609 16.6877C36.5778 16.6139 36.6771 16.5155 36.752 16.3993C36.8269 16.2832 36.8756 16.1521 36.8946 16.0151C36.9136 15.8782 36.9025 15.7388 36.8621 15.6067Z" stroke="black" stroke-width="3"/>
<path d="M23.833 16.6667C24.7797 16.375 25.9797 15.71 26.6497 15.3133C26.8059 15.2204 26.9325 15.0851 27.0151 14.9232C27.0977 14.7613 27.1328 14.5793 27.1163 14.3983L26.333 5H14.6663L13.883 14.3983C13.8662 14.5796 13.9012 14.7619 13.9838 14.9242C14.0663 15.0864 14.1932 15.2219 14.3497 15.315C15.0197 15.71 16.2197 16.375 17.1663 16.6667C19.6547 17.4333 21.3447 17.4333 23.833 16.6667V16.6667Z" stroke="black" stroke-width="3"/>
<path d="M6.96155 5.725L4.13822 15.6083C4.09837 15.7403 4.08771 15.8794 4.107 16.0159C4.12628 16.1524 4.17504 16.283 4.24989 16.3988C4.32474 16.5145 4.42388 16.6126 4.54045 16.6862C4.65701 16.7598 4.78819 16.8072 4.92489 16.825C6.33322 17 8.80822 17.1867 10.5016 16.6667C11.4932 16.3617 12.7649 15.645 13.4132 15.2583C13.5448 15.1791 13.6555 15.0695 13.7361 14.9387C13.8167 14.808 13.8648 14.6598 13.8766 14.5067L14.6682 5H7.92322C7.70592 4.99995 7.49452 5.07069 7.32101 5.2015C7.14749 5.33231 7.02131 5.51608 6.96155 5.725V5.725Z" stroke="black" stroke-width="3"/>
</svg>
