<svg width="60" height="61" viewBox="0 0 60 61" fill="none" xmlns="http://www.w3.org/2000/svg">
<path d="M13.392 11.2139H46.6063C48.3852 11.2138 50.0966 11.8943 51.3897 13.116C52.6827 14.3377 53.4592 16.0079 53.5599 17.7839L53.5706 18.1782V42.821C53.5707 44.5999 52.8901 46.3114 51.6684 47.6044C50.4468 48.8974 48.7766 49.6739 47.0006 49.7746L46.6063 49.7853H13.392C11.6132 49.7854 9.90167 49.1048 8.60867 47.8831C7.31566 46.6615 6.53916 44.9913 6.43845 43.2153L6.42773 42.821V18.1782C6.42762 16.3993 7.10821 14.6878 8.32989 13.3948C9.55157 12.1018 11.2217 11.3253 12.9977 11.2246L13.392 11.2139H46.6063H13.392ZM50.3563 23.8674L30.7406 34.0674C30.5506 34.1662 30.3428 34.226 30.1293 34.2432C29.9159 34.2605 29.7012 34.235 29.4977 34.1682L29.2577 34.0674L9.64202 23.8674V42.821C9.64205 43.7621 9.99596 44.6688 10.6335 45.3611C11.271 46.0534 12.1455 46.4807 13.0834 46.5582L13.392 46.571H46.6063C47.5478 46.5709 48.4548 46.2167 49.1471 45.5788C49.8395 44.9408 50.2665 44.0658 50.3434 43.1274L50.3563 42.821V23.8674ZM46.6063 14.4282H13.392C12.4509 14.4282 11.5442 14.7821 10.8519 15.4196C10.1596 16.0571 9.73232 16.9317 9.65488 17.8696L9.64202 18.1782V20.2439L29.9992 30.8296L50.3563 20.2439V18.1782C50.3562 17.2367 50.002 16.3297 49.3641 15.6374C48.7261 14.945 47.851 14.5179 46.9127 14.441L46.6063 14.4282Z" fill="#5AE781"/>
</svg>
