<svg width="60" height="60" viewBox="0 0 60 60" fill="none" xmlns="http://www.w3.org/2000/svg">
<g clip-path="url(#clip0_321_27)">
<path d="M44.03 38.7948C47.6611 33.8399 49.2874 27.6966 48.5836 21.5941C47.8798 15.4916 44.8978 9.87979 40.2341 5.88151C35.5704 1.88323 29.5691 -0.206715 23.4306 0.0298091C17.2922 0.266333 11.4694 2.81188 7.12726 7.15718C2.78508 11.5025 0.243697 17.3271 0.0115651 23.4657C-0.220567 29.6042 1.87367 35.6041 5.87529 40.2649C9.87691 44.9258 15.4908 47.9038 21.5938 48.6032C27.6969 49.3027 33.8389 47.6719 38.7913 44.0373H38.7875C38.9 44.1873 39.02 44.3298 39.155 44.4685L53.5925 58.906C54.2957 59.6097 55.2495 60.0052 56.2443 60.0055C57.2391 60.0059 58.1932 59.6111 58.8969 58.9079C59.6005 58.2047 59.996 57.2509 59.9964 56.2561C59.9967 55.2613 59.6019 54.3072 58.8988 53.6035L44.4613 39.166C44.3272 39.0303 44.183 38.905 44.03 38.791V38.7948ZM44.9975 24.3798C44.9975 27.0883 44.464 29.7703 43.4275 32.2726C42.391 34.775 40.8718 37.0486 38.9566 38.9639C37.0414 40.8791 34.7677 42.3983 32.2654 43.4348C29.763 44.4713 27.081 45.0048 24.3725 45.0048C21.664 45.0048 18.982 44.4713 16.4797 43.4348C13.9773 42.3983 11.7036 40.8791 9.78843 38.9639C7.87322 37.0486 6.354 34.775 5.31749 32.2726C4.28099 29.7703 3.74751 27.0883 3.74751 24.3798C3.74751 18.9097 5.92049 13.6636 9.78843 9.7957C13.6564 5.92776 18.9024 3.75477 24.3725 3.75477C29.8426 3.75477 35.0886 5.92776 38.9566 9.7957C42.8245 13.6636 44.9975 18.9097 44.9975 24.3798V24.3798Z" fill="#FF8585"/>
</g>
<defs>
<clipPath id="clip0_321_27">
<rect width="60" height="60" fill="white"/>
</clipPath>
</defs>
</svg>
